<?xml version="1.0" encoding="UTF-8" standalone="no"?>
<svg width="119px" height="119px" viewBox="0 0 119 119" version="1.1" xmlns="http://www.w3.org/2000/svg" xmlns:xlink="http://www.w3.org/1999/xlink">
    <!-- Generator: Sketch 39.1 (31720) - http://www.bohemiancoding.com/sketch -->
    <title>Group 14</title>
    <desc>Created with Sketch.</desc>
    <defs>
        <circle id="path-1" cx="59.5" cy="59.5" r="59.5"></circle>
        <mask id="mask-2" maskContentUnits="userSpaceOnUse" maskUnits="objectBoundingBox" x="0" y="0" width="119" height="119" fill="white">
            <use xlink:href="#path-1"></use>
        </mask>
    </defs>
    <g id="Page-1" stroke="none" stroke-width="1" fill="none" fill-rule="evenodd">
        <g id="Desktop-HD-Copy-13" transform="translate(-841.000000, -693.000000)" stroke="#D4B9FF">
            <g id="Group-15" transform="translate(710.000000, 693.000000)">
                <g id="Group-14" transform="translate(131.000000, 0.000000)">
                    <g id="Group-9" transform="translate(20.000000, 27.000000)" stroke-width="2.62733485">
                        <g id="Heart">
                            <path d="M62.8904692,30.141129 L73.447654,19.6572581 L73.447654,19.6572581 C76.3627566,22.5521169 76.3627566,27.2462702 73.447654,30.141129 L72.1280059,31.4516129" id="Shape"></path>
                            <path d="M69.4887097,34.0725806 L77.4065982,26.2096774 L77.4065982,26.2096774 C80.3217009,29.1045363 80.3217009,33.7986895 77.4065982,36.6935484 L76.0869501,38.0040323" id="Shape"></path>
                            <path d="M72.1280059,41.9354839 L78.7262463,35.3830645 L78.7262463,35.3830645 C81.641349,38.2779234 81.641349,42.9720766 78.7262463,45.8669355 L78.7262463,45.8669355 C74.5020528,50.0617944 68.7708211,52.4193548 62.7967742,52.4193548 L52.3332845,52.4193548" id="Shape"></path>
                            <path d="M18.022434,30.141129 L7.46524927,19.6572581 L7.46524927,19.6572581 C4.55014663,22.5521169 4.55014663,27.2462702 7.46524927,30.141129 L8.78489736,31.4516129" id="Shape"></path>
                            <path d="M11.4241935,34.0725806 L3.50630499,26.2096774 L3.50630499,26.2096774 C0.591202346,29.1045363 0.591202346,33.7986895 3.50630499,36.6935484 L4.82595308,38.0040323" id="Shape"></path>
                            <path d="M8.78489736,41.9354839 L2.18665689,35.3830645 L2.18665689,35.3830645 C-0.728445748,38.2779234 -0.728445748,42.9720766 2.18665689,45.8669355 L2.18665689,45.8669355 C6.41085044,50.0617944 12.1420821,52.4193548 18.116129,52.4193548 L28.5796188,52.4193548" id="Shape"></path>
                            <path d="M60.4464809,26.043246 C55.4278592,21.0240927 47.2922287,21.0240927 42.273607,26.043246 L40.4564516,27.8608871 L38.6392962,26.043246 C33.6206745,21.0240927 25.485044,21.0240927 20.4664223,26.043246 C15.4478006,31.0623992 15.4478006,39.200504 20.4664223,44.2196573 L22.2835777,46.0372984 L22.2835777,46.0372984 L40.4564516,64.2137097 L58.6293255,46.0372984 L58.6293255,46.0372984 L60.4464809,44.2196573 C65.4651026,39.200504 65.4651026,31.0623992 60.4464809,26.043246 L60.4464809,26.043246 Z" id="Shape"></path>
                            <ellipse id="Oval" cx="40.4564516" cy="7.86290323" rx="25.0733138" ry="7.86290323"></ellipse>
                            <ellipse id="Oval" cx="40.4564516" cy="7.86290323" rx="18.4750733" ry="2.62096774"></ellipse>
                        </g>
                    </g>
                    <use id="Oval-4" mask="url(#mask-2)" stroke-width="6" xlink:href="#path-1"></use>
                </g>
            </g>
        </g>
    </g>
</svg>