<?xml version="1.0" encoding="UTF-8" standalone="no"?>
<svg width="119px" height="119px" viewBox="0 0 119 119" version="1.1" xmlns="http://www.w3.org/2000/svg" xmlns:xlink="http://www.w3.org/1999/xlink">
    <!-- Generator: Sketch 39.1 (31720) - http://www.bohemiancoding.com/sketch -->
    <title>Group 12</title>
    <desc>Created with Sketch.</desc>
    <defs>
        <circle id="path-1" cx="59.5" cy="59.5" r="59.5"></circle>
        <mask id="mask-2" maskContentUnits="userSpaceOnUse" maskUnits="objectBoundingBox" x="0" y="0" width="119" height="119" fill="white">
            <use xlink:href="#path-1"></use>
        </mask>
    </defs>
    <g id="Page-1" stroke="none" stroke-width="1" fill="none" fill-rule="evenodd">
        <g id="Desktop-HD-Copy-13" transform="translate(-240.000000, -693.000000)">
            <g id="Group-13" transform="translate(109.000000, 693.000000)">
                <g id="Group-12" transform="translate(131.000000, 0.000000)">
                    <g id="Group-8" transform="translate(31.000000, 25.000000)" fill="#D4B9FF">
                        <g id="Group-7">
                            <path d="M43.2,14.25 L21.6,14.25 C20.28,14.25 19.2,15.31875 19.2,16.625 L19.2,24.9375 C19.2,26.24375 20.28,27.3125 21.6,27.3125 L43.2,27.3125 C44.52,27.3125 45.6,26.24375 45.6,24.9375 L45.6,16.625 C45.6,15.31875 44.52,14.25 43.2,14.25 L43.2,14.25 Z M43.2,23.75 C43.2,24.4625 42.72,24.9375 42,24.9375 L22.8,24.9375 C22.08,24.9375 21.6,24.4625 21.6,23.75 L21.6,17.8125 C21.6,17.1 22.08,16.625 22.8,16.625 L42,16.625 C42.72,16.625 43.2,17.1 43.2,17.8125 L43.2,23.75 L43.2,23.75 Z" id="Shape"></path>
                            <path d="M55.2,0 L4.8,0 C2.16,0 0,2.1375 0,4.75 L0,62.9375 C0,65.55 2.16,67.6875 4.8,67.6875 L8.4,67.6875 C9.12,67.6875 9.6,67.2125 9.6,66.5 C9.6,65.7875 9.12,65.3125 8.4,65.3125 L4.8,65.3125 C3.48,65.3125 2.4,64.24375 2.4,62.9375 L2.4,60.5625 L57.6,60.5625 L57.6,62.9375 C57.6,64.24375 56.52,65.3125 55.2,65.3125 L22.8,65.3125 C22.08,65.3125 21.6,65.7875 21.6,66.5 C21.6,67.2125 22.08,67.6875 22.8,67.6875 L55.2,67.6875 C57.84,67.6875 60,65.55 60,62.9375 L60,4.75 C60,2.1375 57.84,0 55.2,0 L55.2,0 Z M2.4,58.1875 L2.4,4.75 C2.4,3.44375 3.48,2.375 4.8,2.375 L55.2,2.375 C56.52,2.375 57.6,3.44375 57.6,4.75 L57.6,58.1875 L2.4,58.1875 L2.4,58.1875 Z" id="Shape"></path>
                            <path d="M18,62.9375 C17.28,62.9375 16.8,63.4125 16.8,64.125 L16.8,72.4375 C16.8,73.15 16.32,73.625 15.6,73.625 C14.88,73.625 14.4,73.15 14.4,72.4375 L14.4,64.125 C14.4,63.4125 13.92,62.9375 13.2,62.9375 C12.48,62.9375 12,63.4125 12,64.125 L12,73.625 C12,74.93125 13.08,76 14.4,76 L16.8,76 C18.12,76 19.2,74.93125 19.2,73.625 L19.2,64.125 C19.2,63.4125 18.72,62.9375 18,62.9375 L18,62.9375 Z" id="Shape"></path>
                            <path d="M6,4.75 C5.28,4.75 4.8,5.225 4.8,5.9375 L4.8,54.625 C4.8,55.3375 5.28,55.8125 6,55.8125 C6.72,55.8125 7.2,55.3375 7.2,54.625 L7.2,5.9375 C7.2,5.225 6.72,4.75 6,4.75 L6,4.75 Z" id="Shape"></path>
                        </g>
                    </g>
                    <use id="Oval-4" stroke="#D4B9FF" mask="url(#mask-2)" stroke-width="6" xlink:href="#path-1"></use>
                </g>
            </g>
        </g>
    </g>
</svg>